<?xml version="1.0" encoding="UTF-8" standalone="no"?><!-- Generator: Gravit.io --><svg xmlns="http://www.w3.org/2000/svg" xmlns:xlink="http://www.w3.org/1999/xlink" style="isolation:isolate" viewBox="0 0 900 600" width="900pt" height="600pt"><defs><clipPath id="_clipPath_l9nu2Qz4SQBruwliqycZih79oWVRCGXC"><rect width="900" height="600"/></clipPath></defs><g clip-path="url(#_clipPath_l9nu2Qz4SQBruwliqycZih79oWVRCGXC)"><rect x="281.482" y="8.524" width="605.982" height="546.476" transform="matrix(1,0,0,1,0,0)" fill="rgb(185,184,184)"/><g><g><rect x="365" y="300" width="165" height="99" transform="matrix(1,0,0,1,0,0)" fill="rgb(126,195,251)" vector-effect="non-scaling-stroke" stroke-width="3" stroke="rgb(42,155,247)" stroke-linejoin="miter" stroke-linecap="square" stroke-miterlimit="2"/><line x1="380.75" y1="312" x2="380.75" y2="387" vector-effect="non-scaling-stroke" stroke-width="3" stroke="rgb(42,155,247)" stroke-linejoin="miter" stroke-linecap="square" stroke-miterlimit="3"/><line x1="393.75" y1="312" x2="393.75" y2="387" vector-effect="non-scaling-stroke" stroke-width="3" stroke="rgb(42,155,247)" stroke-linejoin="miter" stroke-linecap="square" stroke-miterlimit="3"/><line x1="513.75" y1="312" x2="513.75" y2="387" vector-effect="non-scaling-stroke" stroke-width="3" stroke="rgb(42,155,247)" stroke-linejoin="miter" stroke-linecap="square" stroke-miterlimit="3"/><line x1="500.75" y1="312" x2="500.75" y2="387" vector-effect="non-scaling-stroke" stroke-width="3" stroke="rgb(42,155,247)" stroke-linejoin="miter" stroke-linecap="square" stroke-miterlimit="3"/><text transform="matrix(1,0,0,1,425.512,354.984)" style="font-family:'Open Sans';font-weight:700;font-size:12px;font-style:normal;fill:#ffffff;stroke:none;">testapi</text></g><g><rect x="365" y="433" width="165" height="99" transform="matrix(1,0,0,1,0,0)" fill="rgb(126,195,251)" vector-effect="non-scaling-stroke" stroke-width="3" stroke="rgb(42,155,247)" stroke-linejoin="miter" stroke-linecap="square" stroke-miterlimit="2"/><line x1="380.75" y1="445" x2="380.75" y2="520" vector-effect="non-scaling-stroke" stroke-width="3" stroke="rgb(42,155,247)" stroke-linejoin="miter" stroke-linecap="square" stroke-miterlimit="3"/><line x1="393.75" y1="445" x2="393.75" y2="520" vector-effect="non-scaling-stroke" stroke-width="3" stroke="rgb(42,155,247)" stroke-linejoin="miter" stroke-linecap="square" stroke-miterlimit="3"/><line x1="513.75" y1="445" x2="513.75" y2="520" vector-effect="non-scaling-stroke" stroke-width="3" stroke="rgb(42,155,247)" stroke-linejoin="miter" stroke-linecap="square" stroke-miterlimit="3"/><line x1="500.75" y1="445" x2="500.75" y2="520" vector-effect="non-scaling-stroke" stroke-width="3" stroke="rgb(42,155,247)" stroke-linejoin="miter" stroke-linecap="square" stroke-miterlimit="3"/><text transform="matrix(1,0,0,1,424.486,477.076)" style="font-family:'Open Sans';font-weight:700;font-size:12px;font-style:normal;fill:#ffffff;stroke:none;">Jupyter </text><text transform="matrix(1,0,0,1,416.811,493.418)" style="font-family:'Open Sans';font-weight:700;font-size:12px;font-style:normal;fill:#ffffff;stroke:none;">Notebook</text></g><g><rect x="599" y="300" width="165" height="99" transform="matrix(1,0,0,1,0,0)" fill="rgb(126,195,251)" vector-effect="non-scaling-stroke" stroke-width="3" stroke="rgb(42,155,247)" stroke-linejoin="miter" stroke-linecap="square" stroke-miterlimit="2"/><line x1="614.75" y1="312" x2="614.75" y2="387" vector-effect="non-scaling-stroke" stroke-width="3" stroke="rgb(42,155,247)" stroke-linejoin="miter" stroke-linecap="square" stroke-miterlimit="3"/><line x1="627.75" y1="312" x2="627.75" y2="387" vector-effect="non-scaling-stroke" stroke-width="3" stroke="rgb(42,155,247)" stroke-linejoin="miter" stroke-linecap="square" stroke-miterlimit="3"/><line x1="747.75" y1="312" x2="747.75" y2="387" vector-effect="non-scaling-stroke" stroke-width="3" stroke="rgb(42,155,247)" stroke-linejoin="miter" stroke-linecap="square" stroke-miterlimit="3"/><line x1="734.75" y1="312" x2="734.75" y2="387" vector-effect="non-scaling-stroke" stroke-width="3" stroke="rgb(42,155,247)" stroke-linejoin="miter" stroke-linecap="square" stroke-miterlimit="3"/><text transform="matrix(1,0,0,1,652.252,353.326)" style="font-family:'Open Sans';font-weight:700;font-size:12px;font-style:normal;fill:#ffffff;stroke:none;">mongodb</text></g><g><rect x="599" y="167" width="165" height="99" transform="matrix(1,0,0,1,0,0)" fill="rgb(126,195,251)" vector-effect="non-scaling-stroke" stroke-width="3" stroke="rgb(42,155,247)" stroke-linejoin="miter" stroke-linecap="square" stroke-miterlimit="2"/><line x1="614.75" y1="179" x2="614.75" y2="254" vector-effect="non-scaling-stroke" stroke-width="3" stroke="rgb(42,155,247)" stroke-linejoin="miter" stroke-linecap="square" stroke-miterlimit="3"/><line x1="627.75" y1="179" x2="627.75" y2="254" vector-effect="non-scaling-stroke" stroke-width="3" stroke="rgb(42,155,247)" stroke-linejoin="miter" stroke-linecap="square" stroke-miterlimit="3"/><line x1="747.75" y1="179" x2="747.75" y2="254" vector-effect="non-scaling-stroke" stroke-width="3" stroke="rgb(42,155,247)" stroke-linejoin="miter" stroke-linecap="square" stroke-miterlimit="3"/><line x1="734.75" y1="179" x2="734.75" y2="254" vector-effect="non-scaling-stroke" stroke-width="3" stroke="rgb(42,155,247)" stroke-linejoin="miter" stroke-linecap="square" stroke-miterlimit="3"/><text transform="matrix(1,0,0,1,655.568,220.326)" style="font-family:'Open Sans';font-weight:700;font-size:12px;font-style:normal;fill:#ffffff;stroke:none;">influxdb</text></g><g><rect x="365" y="167" width="165" height="99" transform="matrix(1,0,0,1,0,0)" fill="rgb(126,195,251)" vector-effect="non-scaling-stroke" stroke-width="3" stroke="rgb(42,155,247)" stroke-linejoin="miter" stroke-linecap="square" stroke-miterlimit="2"/><line x1="380.75" y1="179" x2="380.75" y2="254" vector-effect="non-scaling-stroke" stroke-width="3" stroke="rgb(42,155,247)" stroke-linejoin="miter" stroke-linecap="square" stroke-miterlimit="3"/><line x1="393.75" y1="179" x2="393.75" y2="254" vector-effect="non-scaling-stroke" stroke-width="3" stroke="rgb(42,155,247)" stroke-linejoin="miter" stroke-linecap="square" stroke-miterlimit="3"/><line x1="513.75" y1="179" x2="513.75" y2="254" vector-effect="non-scaling-stroke" stroke-width="3" stroke="rgb(42,155,247)" stroke-linejoin="miter" stroke-linecap="square" stroke-miterlimit="3"/><line x1="500.75" y1="179" x2="500.75" y2="254" vector-effect="non-scaling-stroke" stroke-width="3" stroke="rgb(42,155,247)" stroke-linejoin="miter" stroke-linecap="square" stroke-miterlimit="3"/><text transform="matrix(1,0,0,1,437.403,220.326)" style="font-family:'Open Sans';font-weight:700;font-size:12px;font-style:normal;fill:#ffffff;stroke:none;">elk</text></g><g><rect x="599" y="32" width="165" height="99" transform="matrix(1,0,0,1,0,0)" fill="rgb(126,195,251)" vector-effect="non-scaling-stroke" stroke-width="3" stroke="rgb(42,155,247)" stroke-linejoin="miter" stroke-linecap="square" stroke-miterlimit="2"/><line x1="614.75" y1="44" x2="614.75" y2="119" vector-effect="non-scaling-stroke" stroke-width="3" stroke="rgb(42,155,247)" stroke-linejoin="miter" stroke-linecap="square" stroke-miterlimit="3"/><line x1="627.75" y1="44" x2="627.75" y2="119" vector-effect="non-scaling-stroke" stroke-width="3" stroke="rgb(42,155,247)" stroke-linejoin="miter" stroke-linecap="square" stroke-miterlimit="3"/><line x1="747.75" y1="44" x2="747.75" y2="119" vector-effect="non-scaling-stroke" stroke-width="3" stroke="rgb(42,155,247)" stroke-linejoin="miter" stroke-linecap="square" stroke-miterlimit="3"/><line x1="734.75" y1="44" x2="734.75" y2="119" vector-effect="non-scaling-stroke" stroke-width="3" stroke="rgb(42,155,247)" stroke-linejoin="miter" stroke-linecap="square" stroke-miterlimit="3"/><text transform="matrix(1,0,0,1,658.247,81.326)" style="font-family:'Open Sans';font-weight:700;font-size:12px;font-style:normal;fill:#ffffff;stroke:none;">grafana</text></g><g><rect x="599" y="433" width="165" height="99" transform="matrix(1,0,0,1,0,0)" fill="rgb(126,195,251)" vector-effect="non-scaling-stroke" stroke-width="3" stroke="rgb(42,155,247)" stroke-linejoin="miter" stroke-linecap="square" stroke-miterlimit="2"/><line x1="614.75" y1="445" x2="614.75" y2="520" vector-effect="non-scaling-stroke" stroke-width="3" stroke="rgb(42,155,247)" stroke-linejoin="miter" stroke-linecap="square" stroke-miterlimit="3"/><line x1="627.75" y1="445" x2="627.75" y2="520" vector-effect="non-scaling-stroke" stroke-width="3" stroke="rgb(42,155,247)" stroke-linejoin="miter" stroke-linecap="square" stroke-miterlimit="3"/><line x1="747.75" y1="445" x2="747.75" y2="520" vector-effect="non-scaling-stroke" stroke-width="3" stroke="rgb(42,155,247)" stroke-linejoin="miter" stroke-linecap="square" stroke-miterlimit="3"/><line x1="734.75" y1="445" x2="734.75" y2="520" vector-effect="non-scaling-stroke" stroke-width="3" stroke="rgb(42,155,247)" stroke-linejoin="miter" stroke-linecap="square" stroke-miterlimit="3"/><text transform="matrix(1,0,0,1,654.76,486.326)" style="font-family:'Open Sans';font-weight:700;font-size:12px;font-style:normal;fill:#ffffff;stroke:none;">postgres</text></g></g><g><line x1="529" y1="482.5" x2="599" y2="482.5" vector-effect="non-scaling-stroke" stroke-width="2" stroke="rgb(42,155,247)" stroke-linejoin="miter" stroke-linecap="square" stroke-miterlimit="3"/><line x1="529" y1="354.5" x2="599" y2="354.5" vector-effect="non-scaling-stroke" stroke-width="2" stroke="rgb(42,155,247)" stroke-linejoin="miter" stroke-linecap="square" stroke-miterlimit="3"/></g><g><rect x="0" y="81.5" width="102" height="407.5" transform="matrix(1,0,0,1,0,0)" fill="rgb(185,184,184)"/><g><ellipse vector-effect="non-scaling-stroke" cx="45.5" cy="364.49999999999966" rx="43.500000000000014" ry="22.5" fill="rgb(158,210,252)" stroke-width="2" stroke="rgb(42,155,247)" stroke-linejoin="miter" stroke-linecap="square" stroke-miterlimit="3"/><text transform="matrix(1,0,0,1,26.539,366.132)" style="font-family:'Open Sans';font-weight:700;font-size:11px;font-style:normal;fill:#ffffff;stroke:none;">VSperf</text></g><text transform="matrix(1,0,0,1,28.21,262.147)" style="font-family:'Open Sans';font-weight:700;font-size:21px;font-style:normal;fill:#ffffff;stroke:none;">DUT</text></g><g><text transform="matrix(1,0,0,1,187.433,276.214)" style="font-family:'Open Sans';font-weight:700;font-size:14px;font-style:normal;fill:#36404d;stroke:none;">SSH</text><path d=" M 273.036 318 L 290 296 L 273.036 270.951 L 272.832 283.668 L 111.432 283.668 L 111.636 270.951 L 97 296 L 111.636 318 L 111.512 305.283 L 272.912 305.283 L 273.036 318 Z " fill="rgb(54,64,77)"/></g><g><g><g><rect x="646.5" y="499" width="70" height="30" transform="matrix(1,0,0,1,0,0)" fill="rgb(208,255,207)"/><text transform="matrix(1,0,0,1,647.25,507.163)" style="font-family:'Open Sans';font-weight:400;font-size:6px;font-style:normal;fill:#000000;stroke:none;">POSTGRES_USER</text><text transform="matrix(1,0,0,1,647.25,515.334)" style="font-family:'Open Sans';font-weight:400;font-size:6px;font-style:normal;fill:#000000;stroke:none;">POSTGRES_PASSWORD</text><text transform="matrix(1,0,0,1,647.25,523.505)" style="font-family:'Open Sans';font-weight:400;font-size:6px;font-style:normal;fill:#000000;stroke:none;">POSTGRES_DB</text></g></g><g><rect x="427.25" y="375" width="40.5" height="20" transform="matrix(1,0,0,1,0,0)" fill="rgb(208,255,207)"/><text transform="matrix(1,0,0,1,429,382.413)" style="font-family:'Open Sans';font-weight:400;font-size:6px;font-style:normal;fill:#000000;stroke:none;">mongodb_url</text><text transform="matrix(1,0,0,1,429,390.584)" style="font-family:'Open Sans';font-weight:400;font-size:6px;font-style:normal;fill:#000000;stroke:none;">base_url</text></g><g><rect x="427.25" y="248" width="44.75" height="13" transform="matrix(1,0,0,1,0,0)" fill="rgb(208,255,207)"/><text transform="matrix(1,0,0,1,429.125,256.413)" style="font-family:'Open Sans';font-weight:400;font-size:6px;font-style:normal;fill:#000000;stroke:none;">discovery.type</text></g></g><g><g><rect x="600" y="206.93" width="41" height="21.106" transform="matrix(1,0,0,1,0,0)" fill="rgb(182,220,251)"/><g style="isolation: isolate;"><rect x="600" y="206.93" width="41" height="21.106" transform="matrix(1,0,0,1,0,0)" fill="none" vector-effect="non-scaling-stroke" stroke-width="1" stroke="rgb(0,0,0)" stroke-linejoin="miter" stroke-linecap="square" stroke-miterlimit="2"/><rect x="600" y="206.93" width="41" height="21.106" transform="matrix(1,0,0,1,0,0)" fill="none" vector-effect="non-scaling-stroke" stroke-width="1" stroke="rgb(0,0,0)" stroke-linejoin="miter" stroke-linecap="square" stroke-miterlimit="2"/></g><text transform="matrix(1,0,0,1,605.5,221.734)" style="font-family:'Open Sans';font-weight:400;font-size:11px;font-style:normal;fill:#000000;stroke:none;">8083</text></g><g><rect x="600" y="230.894" width="41" height="21.106" transform="matrix(1,0,0,1,0,0)" fill="rgb(182,220,251)"/><g style="isolation: isolate;"><rect x="600" y="230.894" width="41" height="21.106" transform="matrix(1,0,0,1,0,0)" fill="none" vector-effect="non-scaling-stroke" stroke-width="1" stroke="rgb(0,0,0)" stroke-linejoin="miter" stroke-linecap="square" stroke-miterlimit="2"/><rect x="600" y="230.894" width="41" height="21.106" transform="matrix(1,0,0,1,0,0)" fill="none" vector-effect="non-scaling-stroke" stroke-width="1" stroke="rgb(0,0,0)" stroke-linejoin="miter" stroke-linecap="square" stroke-miterlimit="2"/></g><text transform="matrix(1,0,0,1,605.5,245.699)" style="font-family:'Open Sans';font-weight:400;font-size:11px;font-style:normal;fill:#000000;stroke:none;">8086</text></g><g><rect x="600" y="182.965" width="41" height="21.106" transform="matrix(1,0,0,1,0,0)" fill="rgb(182,220,251)"/><g style="isolation: isolate;"><rect x="600" y="182.965" width="41" height="21.106" transform="matrix(1,0,0,1,0,0)" fill="none" vector-effect="non-scaling-stroke" stroke-width="1" stroke="rgb(0,0,0)" stroke-linejoin="miter" stroke-linecap="square" stroke-miterlimit="2"/><rect x="600" y="182.965" width="41" height="21.106" transform="matrix(1,0,0,1,0,0)" fill="none" vector-effect="non-scaling-stroke" stroke-width="1" stroke="rgb(0,0,0)" stroke-linejoin="miter" stroke-linecap="square" stroke-miterlimit="2"/></g><text transform="matrix(1,0,0,1,602,197.769)" style="font-family:'Open Sans';font-weight:400;font-size:11px;font-style:normal;fill:#000000;stroke:none;">25826</text></g></g><g><g><rect x="754" y="168" width="64.5" height="21.106" transform="matrix(1,0,0,1,0,0)" fill="rgb(235,235,235)"/><g style="isolation: isolate;"><rect x="754" y="168" width="64.5" height="21.106" transform="matrix(1,0,0,1,0,0)" fill="none" vector-effect="non-scaling-stroke" stroke-width="1" stroke="rgb(0,0,0)" stroke-linejoin="miter" stroke-linecap="square" stroke-miterlimit="2"/><rect x="754" y="168" width="64.5" height="21.106" transform="matrix(1,0,0,1,0,0)" fill="none" vector-effect="non-scaling-stroke" stroke-width="1" stroke="rgb(0,0,0)" stroke-linejoin="miter" stroke-linecap="square" stroke-miterlimit="2"/></g><text transform="matrix(1,0,0,1,754.75,182.804)" style="font-family:'Open Sans';font-weight:400;font-size:11px;font-style:normal;fill:#000000;stroke:none;">25826/udp</text></g><g><rect x="754" y="191.965" width="41" height="21.106" transform="matrix(1,0,0,1,0,0)" fill="rgb(235,235,235)"/><g style="isolation: isolate;"><rect x="754" y="191.965" width="41" height="21.106" transform="matrix(1,0,0,1,0,0)" fill="none" vector-effect="non-scaling-stroke" stroke-width="1" stroke="rgb(0,0,0)" stroke-linejoin="miter" stroke-linecap="square" stroke-miterlimit="2"/><rect x="754" y="191.965" width="41" height="21.106" transform="matrix(1,0,0,1,0,0)" fill="none" vector-effect="non-scaling-stroke" stroke-width="1" stroke="rgb(0,0,0)" stroke-linejoin="miter" stroke-linecap="square" stroke-miterlimit="2"/></g><text transform="matrix(1,0,0,1,756,206.769)" style="font-family:'Open Sans';font-weight:400;font-size:11px;font-style:normal;fill:#000000;stroke:none;">25826</text></g><g><rect x="754" y="74.965" width="41" height="21.106" transform="matrix(1,0,0,1,0,0)" fill="rgb(235,235,235)"/><g style="isolation: isolate;"><rect x="754" y="74.965" width="41" height="21.106" transform="matrix(1,0,0,1,0,0)" fill="none" vector-effect="non-scaling-stroke" stroke-width="1" stroke="rgb(0,0,0)" stroke-linejoin="miter" stroke-linecap="square" stroke-miterlimit="2"/><rect x="754" y="74.965" width="41" height="21.106" transform="matrix(1,0,0,1,0,0)" fill="none" vector-effect="non-scaling-stroke" stroke-width="1" stroke="rgb(0,0,0)" stroke-linejoin="miter" stroke-linecap="square" stroke-miterlimit="2"/></g><text transform="matrix(1,0,0,1,760.5,90.395)" style="font-family:'Open Sans';font-weight:400;font-size:11px;font-style:normal;fill:#000000;stroke:none;">3000</text></g><g><rect x="335" y="175.965" width="41" height="21.106" transform="matrix(1,0,0,1,0,0)" fill="rgb(235,235,235)"/><g style="isolation: isolate;"><rect x="335" y="175.965" width="41" height="21.106" transform="matrix(1,0,0,1,0,0)" fill="none" vector-effect="non-scaling-stroke" stroke-width="1" stroke="rgb(0,0,0)" stroke-linejoin="miter" stroke-linecap="square" stroke-miterlimit="2"/><rect x="335" y="175.965" width="41" height="21.106" transform="matrix(1,0,0,1,0,0)" fill="none" vector-effect="non-scaling-stroke" stroke-width="1" stroke="rgb(0,0,0)" stroke-linejoin="miter" stroke-linecap="square" stroke-miterlimit="2"/></g><text transform="matrix(1,0,0,1,341.5,191.395)" style="font-family:'Open Sans';font-weight:400;font-size:11px;font-style:normal;fill:#000000;stroke:none;">5601</text></g><g><rect x="335" y="203.965" width="41" height="21.106" transform="matrix(1,0,0,1,0,0)" fill="rgb(235,235,235)"/><g style="isolation: isolate;"><rect x="335" y="203.965" width="41" height="21.106" transform="matrix(1,0,0,1,0,0)" fill="none" vector-effect="non-scaling-stroke" stroke-width="1" stroke="rgb(0,0,0)" stroke-linejoin="miter" stroke-linecap="square" stroke-miterlimit="2"/><rect x="335" y="203.965" width="41" height="21.106" transform="matrix(1,0,0,1,0,0)" fill="none" vector-effect="non-scaling-stroke" stroke-width="1" stroke="rgb(0,0,0)" stroke-linejoin="miter" stroke-linecap="square" stroke-miterlimit="2"/></g><text transform="matrix(1,0,0,1,341.5,219.395)" style="font-family:'Open Sans';font-weight:400;font-size:11px;font-style:normal;fill:#000000;stroke:none;">9200</text></g><g><rect x="335" y="322.965" width="41" height="21.106" transform="matrix(1,0,0,1,0,0)" fill="rgb(235,235,235)"/><g style="isolation: isolate;"><rect x="335" y="322.965" width="41" height="21.106" transform="matrix(1,0,0,1,0,0)" fill="none" vector-effect="non-scaling-stroke" stroke-width="1" stroke="rgb(0,0,0)" stroke-linejoin="miter" stroke-linecap="square" stroke-miterlimit="2"/><rect x="335" y="322.965" width="41" height="21.106" transform="matrix(1,0,0,1,0,0)" fill="none" vector-effect="non-scaling-stroke" stroke-width="1" stroke="rgb(0,0,0)" stroke-linejoin="miter" stroke-linecap="square" stroke-miterlimit="2"/></g><text transform="matrix(1,0,0,1,341.5,338.395)" style="font-family:'Open Sans';font-weight:400;font-size:11px;font-style:normal;fill:#000000;stroke:none;">8000</text></g><g><rect x="335" y="357.965" width="41" height="21.106" transform="matrix(1,0,0,1,0,0)" fill="rgb(235,235,235)"/><g style="isolation: isolate;"><rect x="335" y="357.965" width="41" height="21.106" transform="matrix(1,0,0,1,0,0)" fill="none" vector-effect="non-scaling-stroke" stroke-width="1" stroke="rgb(0,0,0)" stroke-linejoin="miter" stroke-linecap="square" stroke-miterlimit="2"/><rect x="335" y="357.965" width="41" height="21.106" transform="matrix(1,0,0,1,0,0)" fill="none" vector-effect="non-scaling-stroke" stroke-width="1" stroke="rgb(0,0,0)" stroke-linejoin="miter" stroke-linecap="square" stroke-miterlimit="2"/></g><text transform="matrix(1,0,0,1,341.5,373.395)" style="font-family:'Open Sans';font-weight:400;font-size:11px;font-style:normal;fill:#000000;stroke:none;">8001</text></g><g><rect x="335" y="471.947" width="41" height="21.106" transform="matrix(1,0,0,1,0,0)" fill="rgb(235,235,235)"/><g style="isolation: isolate;"><rect x="335" y="471.947" width="41" height="21.106" transform="matrix(1,0,0,1,0,0)" fill="none" vector-effect="non-scaling-stroke" stroke-width="1" stroke="rgb(0,0,0)" stroke-linejoin="miter" stroke-linecap="square" stroke-miterlimit="2"/><rect x="335" y="471.947" width="41" height="21.106" transform="matrix(1,0,0,1,0,0)" fill="none" vector-effect="non-scaling-stroke" stroke-width="1" stroke="rgb(0,0,0)" stroke-linejoin="miter" stroke-linecap="square" stroke-miterlimit="2"/></g><text transform="matrix(1,0,0,1,341.5,487.377)" style="font-family:'Open Sans';font-weight:400;font-size:11px;font-style:normal;fill:#000000;stroke:none;">8888</text></g><g><rect x="754" y="215.93" width="41" height="21.106" transform="matrix(1,0,0,1,0,0)" fill="rgb(235,235,235)"/><g style="isolation: isolate;"><rect x="754" y="215.93" width="41" height="21.106" transform="matrix(1,0,0,1,0,0)" fill="none" vector-effect="non-scaling-stroke" stroke-width="1" stroke="rgb(0,0,0)" stroke-linejoin="miter" stroke-linecap="square" stroke-miterlimit="2"/><rect x="754" y="215.93" width="41" height="21.106" transform="matrix(1,0,0,1,0,0)" fill="none" vector-effect="non-scaling-stroke" stroke-width="1" stroke="rgb(0,0,0)" stroke-linejoin="miter" stroke-linecap="square" stroke-miterlimit="2"/></g><text transform="matrix(1,0,0,1,759.5,230.734)" style="font-family:'Open Sans';font-weight:400;font-size:11px;font-style:normal;fill:#000000;stroke:none;">8083</text></g><g><rect x="754" y="239.894" width="41" height="21.106" transform="matrix(1,0,0,1,0,0)" fill="rgb(235,235,235)"/><g style="isolation: isolate;"><rect x="754" y="239.894" width="41" height="21.106" transform="matrix(1,0,0,1,0,0)" fill="none" vector-effect="non-scaling-stroke" stroke-width="1" stroke="rgb(0,0,0)" stroke-linejoin="miter" stroke-linecap="square" stroke-miterlimit="2"/><rect x="754" y="239.894" width="41" height="21.106" transform="matrix(1,0,0,1,0,0)" fill="none" vector-effect="non-scaling-stroke" stroke-width="1" stroke="rgb(0,0,0)" stroke-linejoin="miter" stroke-linecap="square" stroke-miterlimit="2"/></g><text transform="matrix(1,0,0,1,759.5,254.699)" style="font-family:'Open Sans';font-weight:400;font-size:11px;font-style:normal;fill:#000000;stroke:none;">8086</text></g><g><rect x="335" y="231.965" width="41" height="21.106" transform="matrix(1,0,0,1,0,0)" fill="rgb(235,235,235)"/><g style="isolation: isolate;"><rect x="335" y="231.965" width="41" height="21.106" transform="matrix(1,0,0,1,0,0)" fill="none" vector-effect="non-scaling-stroke" stroke-width="1" stroke="rgb(0,0,0)" stroke-linejoin="miter" stroke-linecap="square" stroke-miterlimit="2"/><rect x="335" y="231.965" width="41" height="21.106" transform="matrix(1,0,0,1,0,0)" fill="none" vector-effect="non-scaling-stroke" stroke-width="1" stroke="rgb(0,0,0)" stroke-linejoin="miter" stroke-linecap="square" stroke-miterlimit="2"/></g><text transform="matrix(1,0,0,1,341.5,247.395)" style="font-family:'Open Sans';font-weight:400;font-size:11px;font-style:normal;fill:#000000;stroke:none;">5044</text></g><g><rect x="754" y="338.894" width="41" height="21.106" transform="matrix(1,0,0,1,0,0)" fill="rgb(235,235,235)"/><g style="isolation: isolate;"><rect x="754" y="338.894" width="41" height="21.106" transform="matrix(1,0,0,1,0,0)" fill="none" vector-effect="non-scaling-stroke" stroke-width="1" stroke="rgb(0,0,0)" stroke-linejoin="miter" stroke-linecap="square" stroke-miterlimit="2"/><rect x="754" y="338.894" width="41" height="21.106" transform="matrix(1,0,0,1,0,0)" fill="none" vector-effect="non-scaling-stroke" stroke-width="1" stroke="rgb(0,0,0)" stroke-linejoin="miter" stroke-linecap="square" stroke-miterlimit="2"/></g><text transform="matrix(1,0,0,1,757.5,354.324)" style="font-family:'Open Sans';font-weight:400;font-size:11px;font-style:normal;fill:#000000;stroke:none;">27017</text></g></g><g><line x1="795" y1="349.447" x2="887.464" y2="349.447" vector-effect="non-scaling-stroke" stroke-width="1" stroke="rgb(0,0,0)" stroke-linejoin="miter" stroke-linecap="square" stroke-miterlimit="3"/><line x1="795" y1="349.447" x2="887.464" y2="349.447" vector-effect="non-scaling-stroke" stroke-width="1" stroke="rgb(0,0,0)" stroke-linejoin="miter" stroke-linecap="square" stroke-miterlimit="3"/><line x1="795" y1="226.447" x2="887.464" y2="226.447" vector-effect="non-scaling-stroke" stroke-width="1" stroke="rgb(0,0,0)" stroke-linejoin="miter" stroke-linecap="square" stroke-miterlimit="3"/><line x1="795" y1="250.447" x2="887.464" y2="250.447" vector-effect="non-scaling-stroke" stroke-width="1" stroke="rgb(0,0,0)" stroke-linejoin="miter" stroke-linecap="square" stroke-miterlimit="3"/><line x1="795" y1="202.447" x2="887.464" y2="202.447" vector-effect="non-scaling-stroke" stroke-width="1" stroke="rgb(0,0,0)" stroke-linejoin="miter" stroke-linecap="square" stroke-miterlimit="3"/><line x1="795" y1="85.447" x2="887.464" y2="85.447" vector-effect="non-scaling-stroke" stroke-width="1" stroke="rgb(0,0,0)" stroke-linejoin="miter" stroke-linecap="square" stroke-miterlimit="3"/><path d=" M 819 178.447 L 838 178.447 L 849.5 178.447 L 887.464 178.447" fill="none" vector-effect="non-scaling-stroke" stroke-width="1" stroke="rgb(0,0,0)" stroke-linejoin="miter" stroke-linecap="square" stroke-miterlimit="3"/><line x1="335" y1="482.5" x2="281.482" y2="482.5" vector-effect="non-scaling-stroke" stroke-width="1" stroke="rgb(0,0,0)" stroke-linejoin="miter" stroke-linecap="square" stroke-miterlimit="3"/><line x1="335" y1="369.5" x2="281.482" y2="369.5" vector-effect="non-scaling-stroke" stroke-width="1" stroke="rgb(0,0,0)" stroke-linejoin="miter" stroke-linecap="square" stroke-miterlimit="3"/><line x1="335" y1="333.5" x2="281.482" y2="333.5" vector-effect="non-scaling-stroke" stroke-width="1" stroke="rgb(0,0,0)" stroke-linejoin="miter" stroke-linecap="square" stroke-miterlimit="3"/><line x1="335" y1="243.5" x2="281.482" y2="243.5" vector-effect="non-scaling-stroke" stroke-width="1" stroke="rgb(0,0,0)" stroke-linejoin="miter" stroke-linecap="square" stroke-miterlimit="3"/><line x1="335" y1="215.5" x2="281.482" y2="215.5" vector-effect="non-scaling-stroke" stroke-width="1" stroke="rgb(0,0,0)" stroke-linejoin="miter" stroke-linecap="square" stroke-miterlimit="3"/><line x1="335" y1="187.5" x2="281.482" y2="187.5" vector-effect="non-scaling-stroke" stroke-width="1" stroke="rgb(0,0,0)" stroke-linejoin="miter" stroke-linecap="square" stroke-miterlimit="3"/></g><g><g><g opacity="0.6"><rect x="651" y="171.518" width="70" height="12.482" transform="matrix(1,0,0,1,0,0)" fill="rgb(255,209,135)"/></g><text transform="matrix(1,0,0,1,655,181.068)" style="font-family:'Open Sans';font-weight:400;font-size:8px;font-style:normal;fill:#000000;stroke:none;">/var/lib/influxdb</text></g><g><g opacity="0.6"><rect x="376.5" y="172.518" width="151.5" height="30" transform="matrix(1,0,0,1,0,0)" fill="rgb(255,209,135)"/></g><text transform="matrix(1,0,0,1,376.5,184.516)" style="font-family:'Open Sans';font-weight:400;font-size:8px;font-style:normal;fill:#000000;stroke:none;">elk-data:/var/lib/elasticsearch</text><text transform="matrix(1,0,0,1,376.5,195.41)" style="font-family:'Open Sans';font-weight:400;font-size:8px;font-style:normal;fill:#000000;stroke:none;">./logstash/pipeline/:/etc/logstash/conf.d/</text></g><g><g opacity="0.6"><rect x="641" y="303.518" width="84" height="13.482" transform="matrix(1,0,0,1,0,0)" fill="rgb(255,209,135)"/></g><text transform="matrix(1,0,0,1,642,313.551)" style="font-family:'Open Sans';font-weight:400;font-size:8px;font-style:normal;fill:#000000;stroke:none;">mongo-data:/data/db</text></g><g><g opacity="0.6"><rect x="387" y="303.518" width="120" height="13.482" transform="matrix(1,0,0,1,0,0)" fill="rgb(255,209,135)"/></g><text transform="matrix(1,0,0,1,389,312.551)" style="font-family:'Open Sans';font-weight:400;font-size:8px;font-style:normal;fill:#000000;stroke:none;">testapi-logs:/home/testapi/logs</text></g><g><g opacity="0.6"><rect x="399" y="436.518" width="97" height="26.482" transform="matrix(1,0,0,1,0,0)" fill="rgb(255,209,135)"/></g><text transform="matrix(1,0,0,1,401,445.551)" style="font-family:'Open Sans';font-weight:400;font-size:8px;font-style:normal;fill:#000000;stroke:none;">./notebooks:/notebooks</text><text transform="matrix(1,0,0,1,401,456.445)" style="font-family:'Open Sans';font-weight:400;font-size:8px;font-style:normal;fill:#000000;stroke:none;">./data:/data</text></g><g><g opacity="0.6"><rect x="630.25" y="36.232" width="101.75" height="25.303" transform="matrix(1,0,0,1,0,0)" fill="rgb(255,209,135)"/></g><text transform="matrix(1,0,0,1,633,46.551)" style="font-family:'Open Sans';font-weight:400;font-size:8px;font-style:normal;fill:#000000;stroke:none;">/var/lib/grafana</text><text transform="matrix(1,0,0,1,633,57.445)" style="font-family:'Open Sans';font-weight:400;font-size:8px;font-style:normal;fill:#000000;stroke:none;">/opt/grafana/dashboards</text></g></g><g><g><line x1="441" y1="582.126" x2="484.75" y2="582.626" vector-effect="non-scaling-stroke" stroke-width="2" stroke="rgb(42,155,247)" stroke-linejoin="miter" stroke-linecap="square" stroke-miterlimit="3"/><text transform="matrix(1,0,0,1,492.75,586.883)" style="font-family:'Open Sans';font-weight:400;font-size:11px;font-style:normal;fill:#000000;stroke:none;">link</text></g><g><text transform="matrix(1,0,0,1,327,586.883)" style="font-family:'Open Sans';font-weight:400;font-size:11px;font-style:normal;fill:#000000;stroke:none;">environment</text><rect x="275.25" y="575.126" width="44.75" height="14.98" transform="matrix(1,0,0,1,0,0)" fill="rgb(208,255,207)"/></g><g><text transform="matrix(1,0,0,1,198.75,586.863)" style="font-family:'Open Sans';font-weight:400;font-size:11px;font-style:normal;fill:#000000;stroke:none;">ports</text><rect x="147" y="575" width="43.75" height="15.106" transform="matrix(1,0,0,1,0,0)" fill="rgb(235,235,235)"/><g style="isolation: isolate;"><rect x="147" y="575" width="43.75" height="15.106" transform="matrix(1,0,0,1,0,0)" fill="none" vector-effect="non-scaling-stroke" stroke-width="1" stroke="rgb(0,0,0)" stroke-linejoin="miter" stroke-linecap="square" stroke-miterlimit="2"/><rect x="147" y="575" width="43.75" height="15.106" transform="matrix(1,0,0,1,0,0)" fill="none" vector-effect="non-scaling-stroke" stroke-width="1" stroke="rgb(0,0,0)" stroke-linejoin="miter" stroke-linecap="square" stroke-miterlimit="2"/></g></g><g><text transform="matrix(1,0,0,1,63,586.757)" style="font-family:'Open Sans';font-weight:400;font-size:11px;font-style:normal;fill:#000000;stroke:none;">expose</text><rect x="11.25" y="575" width="43.75" height="15.106" transform="matrix(1,0,0,1,0,0)" fill="rgb(182,220,251)"/><g style="isolation: isolate;"><rect x="11.25" y="575" width="43.75" height="15.106" transform="matrix(1,0,0,1,0,0)" fill="none" vector-effect="non-scaling-stroke" stroke-width="1" stroke="rgb(0,0,0)" stroke-linejoin="miter" stroke-linecap="square" stroke-miterlimit="2"/><rect x="11.25" y="575" width="43.75" height="15.106" transform="matrix(1,0,0,1,0,0)" fill="none" vector-effect="non-scaling-stroke" stroke-width="1" stroke="rgb(0,0,0)" stroke-linejoin="miter" stroke-linecap="square" stroke-miterlimit="2"/></g></g><g><g opacity="0.6"><rect x="568" y="575.126" width="44.75" height="14.98" transform="matrix(1,0,0,1,0,0)" fill="rgb(255,209,135)"/></g><text transform="matrix(1,0,0,1,622,586.757)" style="font-family:'Open Sans';font-weight:400;font-size:11px;font-style:normal;fill:#000000;stroke:none;">volume</text></g></g><g><g><rect x="365" y="113.079" width="139" height="14.921" transform="matrix(1,0,0,1,0,0)" fill="rgb(255,220,146)"/><text transform="matrix(1,0,0,1,375.171,124.665)" style="font-family:'Open Sans';font-weight:400;font-size:11px;font-style:normal;fill:#000000;stroke:none;">testapi-logs</text></g><g><rect x="365" y="93.184" width="139" height="14.921" transform="matrix(1,0,0,1,0,0)" fill="rgb(255,220,146)"/><text transform="matrix(1,0,0,1,375.171,104.77)" style="font-family:'Open Sans';font-weight:400;font-size:11px;font-style:normal;fill:#000000;stroke:none;">mongo-data</text></g><g><rect x="365" y="72.875" width="139" height="14.921" transform="matrix(1,0,0,1,0,0)" fill="rgb(255,220,146)"/><text transform="matrix(1,0,0,1,375.171,84.461)" style="font-family:'Open Sans';font-weight:400;font-size:11px;font-style:normal;fill:#000000;stroke:none;">grafana-data</text></g><g><rect x="365" y="53.395" width="139" height="14.921" transform="matrix(1,0,0,1,0,0)" fill="rgb(255,220,146)"/><text transform="matrix(1,0,0,1,375.171,65.981)" style="font-family:'Open Sans';font-weight:400;font-size:11px;font-style:normal;fill:#000000;stroke:none;">influx-data</text></g><g><rect x="365" y="33.5" width="139" height="14.921" transform="matrix(1,0,0,1,0,0)" fill="rgb(255,220,146)"/><text transform="matrix(1,0,0,1,375.171,46.086)" style="font-family:'Open Sans';font-weight:400;font-size:11px;font-style:normal;fill:#000000;stroke:none;">elk-data</text></g></g></g></svg>