<?xml version="1.0" encoding="UTF-8" standalone="no"?><!-- Generator: Gravit.io --><svg xmlns="http://www.w3.org/2000/svg" xmlns:xlink="http://www.w3.org/1999/xlink" style="isolation:isolate" viewBox="0 0 500 250" width="500pt" height="250pt"><defs><clipPath id="_clipPath_JSQKS6FkI6I054oyLVkm8Xbij3PaOKrH"><rect width="500" height="250"/></clipPath></defs><g clip-path="url(#_clipPath_JSQKS6FkI6I054oyLVkm8Xbij3PaOKrH)"><g><rect x="262.036" y="48" width="223.964" height="153" transform="matrix(1,0,0,1,0,0)" fill="rgb(185,184,184)"/><g><g><path d=" M 381.891 95.444 C 367.099 94.895 355.348 87.53 355.664 79.006 C 355.98 70.482 368.245 64.007 383.036 64.556 C 397.828 65.105 409.579 72.47 409.263 80.994 C 408.947 89.518 396.682 95.993 381.891 95.444 Z " fill="rgb(126,195,251)"/><path d=" M 365.052 89.191 C 360.778 86.512 358.202 82.937 358.344 79.105 C 358.42 77.04 359.279 75.108 360.753 73.397 C 364.748 68.757 373.264 65.74 382.979 66.1 C 396.277 66.594 406.868 73.231 406.583 80.895 C 406.299 88.558 395.246 94.393 381.948 93.9 C 375.299 93.653 369.327 91.87 365.052 89.191 Z  M 352.984 78.906 C 352.636 88.289 365.552 96.384 381.833 96.988 C 398.115 97.592 411.595 90.476 411.943 81.094 C 412.291 71.711 399.375 63.616 383.094 63.012 C 366.813 62.408 353.332 69.524 352.984 78.906 Z " fill="rgb(42,155,247)"/></g></g><g><rect x="295" y="80" width="165" height="99" transform="matrix(1,0,0,1,0,0)" fill="rgb(126,195,251)" vector-effect="non-scaling-stroke" stroke-width="3" stroke="rgb(42,155,247)" stroke-linejoin="miter" stroke-linecap="square" stroke-miterlimit="2"/><line x1="310.75" y1="92" x2="310.75" y2="167" vector-effect="non-scaling-stroke" stroke-width="3" stroke="rgb(42,155,247)" stroke-linejoin="miter" stroke-linecap="square" stroke-miterlimit="3"/><line x1="323.75" y1="92" x2="323.75" y2="167" vector-effect="non-scaling-stroke" stroke-width="3" stroke="rgb(42,155,247)" stroke-linejoin="miter" stroke-linecap="square" stroke-miterlimit="3"/><line x1="443.75" y1="92" x2="443.75" y2="167" vector-effect="non-scaling-stroke" stroke-width="3" stroke="rgb(42,155,247)" stroke-linejoin="miter" stroke-linecap="square" stroke-miterlimit="3"/><line x1="430.75" y1="92" x2="430.75" y2="167" vector-effect="non-scaling-stroke" stroke-width="3" stroke="rgb(42,155,247)" stroke-linejoin="miter" stroke-linecap="square" stroke-miterlimit="3"/></g><text transform="matrix(1,0,0,1,329.527,132.257)" style="font-family:'Open Sans';font-weight:700;font-size:11px;font-style:normal;fill:#ffffff;stroke:none;">VSperf-controller</text><text transform="matrix(1,0,0,1,43.655,136.757)" style="font-family:'Open Sans';font-weight:700;font-size:11px;font-style:normal;fill:#ffffff;stroke:none;">VSperf-client.py</text><ellipse vector-effect="non-scaling-stroke" cx="87.99999999999994" cy="134" rx="66" ry="20" fill="rgb(158,210,252)" stroke-width="2" stroke="rgb(42,155,247)" stroke-linejoin="miter" stroke-linecap="square" stroke-miterlimit="3"/><text transform="matrix(1,0,0,1,43.655,136.757)" style="font-family:'Open Sans';font-weight:700;font-size:11px;font-style:normal;fill:#ffffff;stroke:none;">VSperf-client.py</text><text transform="matrix(1,0,0,1,201.804,123.257)" style="font-family:'Open Sans';font-weight:700;font-size:11px;font-style:normal;fill:#36404d;stroke:none;">gRPC</text><path d=" M 245.4 150.799 L 262.036 134 L 245.072 117.201 L 245.196 129.918 L 170.76 129.918 L 170.636 117.201 L 154 134 L 170.964 150.799 L 170.84 138.082 L 245.276 138.082 L 245.4 150.799 Z " fill="rgb(54,64,77)"/><text transform="matrix(1,0,0,1,369.621,75.62)" style="font-family:'Open Sans';font-weight:700;font-size:9px;font-style:normal;fill:#ffffff;stroke:none;">50051</text></g></g></svg>